<svg width="446" height="396" viewBox="0 0 446 396" fill="none" xmlns="http://www.w3.org/2000/svg">
<g opacity="0.9" filter="url(#filter0_b_1096_568)">
<path d="M406.76 335.544C406.761 335.545 406.76 335.546 406.759 335.546H378.297C375.199 335.546 372.696 333.038 372.696 329.944C372.696 326.854 375.199 324.343 378.297 324.343H406.762C422.2 324.343 434.762 311.781 434.762 296.343V39.6626C434.762 24.2246 422.2 11.6626 406.762 11.6626H39.9622C24.5242 11.6626 11.9622 24.2246 11.9622 39.6626V296.343C11.9622 311.781 24.5242 324.343 39.9622 324.343H260.692C263.79 324.343 266.294 326.85 266.294 329.944C266.294 333.034 263.79 335.546 260.692 335.546L39.9622 335.542C18.3532 335.542 0.763184 317.956 0.763184 296.343L0.759277 39.6629C0.759277 18.0459 18.3493 0.463867 39.9583 0.463867H406.758C428.367 0.463867 445.957 18.0499 445.957 39.6629V296.343C445.961 317.959 428.373 335.54 406.761 335.542C406.76 335.542 406.76 335.543 406.76 335.544V335.544Z" fill="url(#paint0_linear_1096_568)"/>
<path d="M440.362 81.0157H6.3621C3.2644 81.0157 0.760498 78.5079 0.760498 75.4141C0.760498 72.3243 3.2644 69.8125 6.3621 69.8125H440.362C443.46 69.8125 445.964 72.3203 445.964 75.4141C445.964 78.5079 443.46 81.0157 440.362 81.0157Z" fill="url(#paint1_linear_1096_568)"/>
<path d="M347.962 59.2761C338.443 59.2761 330.696 51.53 330.696 42.0101C330.696 32.4906 338.442 24.7441 347.962 24.7441C357.482 24.7441 365.228 32.4902 365.228 42.0101C365.224 51.5335 357.482 59.2761 347.962 59.2761ZM347.962 35.9481C344.615 35.9481 341.896 38.6708 341.896 42.0145C341.896 45.3582 344.611 48.0809 347.962 48.0809C351.31 48.0809 354.029 45.3582 354.029 42.0145C354.025 38.6707 351.31 35.9481 347.962 35.9481Z" fill="url(#paint2_linear_1096_568)"/>
<path d="M297.562 59.2761C288.043 59.2761 280.296 51.53 280.296 42.0101C280.296 32.4906 288.042 24.7441 297.562 24.7441C307.082 24.7441 314.828 32.4902 314.828 42.0101C314.828 51.5335 307.082 59.2761 297.562 59.2761ZM297.562 35.9481C294.214 35.9481 291.496 38.6708 291.496 42.0145C291.496 45.3582 294.211 48.0809 297.562 48.0809C300.91 48.0809 303.629 45.3582 303.629 42.0145C303.629 38.6708 300.91 35.9481 297.562 35.9481Z" fill="url(#paint3_linear_1096_568)"/>
<path d="M398.362 59.2761C388.843 59.2761 381.096 51.53 381.096 42.0101C381.096 32.4906 388.842 24.7441 398.362 24.7441C407.882 24.7441 415.628 32.4902 415.628 42.0101C415.628 51.5335 407.882 59.2761 398.362 59.2761ZM398.362 35.9481C395.014 35.9481 392.296 38.6708 392.296 42.0145C392.296 45.3582 395.011 48.0809 398.362 48.0809C401.71 48.0809 404.429 45.3582 404.429 42.0145C404.429 38.6708 401.71 35.9481 398.362 35.9481Z" fill="url(#paint4_linear_1096_568)"/>
<path d="M248.692 380.324C248.692 380.325 248.692 380.326 248.691 380.326C248.082 380.325 247.454 380.22 246.845 380.005C243.927 378.982 242.388 375.786 243.411 372.872L300.548 209.732C301.333 207.486 303.454 205.986 305.829 205.986H336.114C338.493 205.986 340.618 207.494 341.395 209.732L398.532 372.862C399.556 375.78 398.017 378.976 395.099 379.995C392.196 381.019 388.985 379.48 387.97 376.562L333.08 219.849C332.518 218.245 331.004 217.172 329.305 217.172H312.635C310.936 217.172 309.422 218.245 308.86 219.849L253.97 376.562C253.173 378.87 251.014 380.323 248.694 380.323C248.693 380.323 248.692 380.324 248.692 380.324V380.324Z" fill="url(#paint5_linear_1096_568)"/>
<path d="M347.182 251.546H294.756C291.658 251.546 289.155 249.038 289.155 245.944C289.155 242.855 291.658 240.343 294.756 240.343H347.182C350.28 240.343 352.784 242.851 352.784 245.944C352.784 249.038 350.28 251.546 347.182 251.546Z" fill="url(#paint6_linear_1096_568)"/>
<path d="M357.372 284.115C357.372 284.115 357.372 284.115 357.372 284.115H284.841C281.743 284.115 279.24 281.608 279.24 278.514C279.24 275.424 281.743 272.912 284.841 272.912L357.372 272.916C360.47 272.916 362.974 275.424 362.974 278.518C362.974 281.607 360.462 284.115 357.372 284.115C357.372 284.115 357.372 284.115 357.372 284.115V284.115Z" fill="url(#paint7_linear_1096_568)"/>
<path d="M370.492 316.485H271.445C268.347 316.485 265.844 313.978 265.844 310.884C265.844 307.794 268.347 305.282 271.445 305.282H370.5C373.598 305.282 376.102 307.79 376.102 310.884C376.098 313.978 373.59 316.485 370.492 316.485H370.492Z" fill="url(#paint8_linear_1096_568)"/>
<path d="M382.132 348.556H261.522C258.425 348.556 255.921 346.048 255.921 342.954C255.921 339.864 258.425 337.353 261.522 337.353H382.132C385.23 337.353 387.734 339.86 387.734 342.954C387.734 346.044 385.23 348.556 382.14 348.556H382.132Z" fill="url(#paint9_linear_1096_568)"/>
<path d="M394.752 395.536H249.802C240.205 395.536 232.689 389.735 232.689 382.333C232.689 374.931 240.205 369.13 249.802 369.13H394.752C404.35 369.13 411.873 374.931 411.873 382.333C411.873 389.735 404.35 395.536 394.748 395.536H394.752ZM249.802 380.325C249.802 380.323 249.8 380.321 249.798 380.321C247.984 380.321 246.549 380.713 245.541 381.179C244.325 381.741 244.44 383.065 245.681 383.571C246.68 383.979 248.069 384.336 249.802 384.336H394.752C396.554 384.336 397.983 383.951 398.991 383.49C400.223 382.926 400.105 381.588 398.848 381.08C397.85 380.677 396.469 380.325 394.752 380.325L249.806 380.329C249.804 380.329 249.802 380.327 249.802 380.325V380.325Z" fill="url(#paint10_linear_1096_568)"/>
</g>
<defs>
<filter id="filter0_b_1096_568" x="-39.2407" y="-39.5361" width="525.204" height="475.072" filterUnits="userSpaceOnUse" color-interpolation-filters="sRGB">
<feFlood flood-opacity="0" result="BackgroundImageFix"/>
<feGaussianBlur in="BackgroundImage" stdDeviation="20"/>
<feComposite in2="SourceAlpha" operator="in" result="effect1_backgroundBlur_1096_568"/>
<feBlend mode="normal" in="SourceGraphic" in2="effect1_backgroundBlur_1096_568" result="shape"/>
</filter>
<linearGradient id="paint0_linear_1096_568" x1="430.485" y1="307.645" x2="-38.729" y2="112.22" gradientUnits="userSpaceOnUse">
<stop stop-color="#E50913"/>
<stop offset="1" stop-color="#5C4243"/>
</linearGradient>
<linearGradient id="paint1_linear_1096_568" x1="430.491" y1="80.0828" x2="426.966" y2="36.1657" gradientUnits="userSpaceOnUse">
<stop stop-color="#E50913"/>
<stop offset="1" stop-color="#5C4243"/>
</linearGradient>
<linearGradient id="paint2_linear_1096_568" x1="364.028" y1="56.4008" x2="325.141" y2="44.2106" gradientUnits="userSpaceOnUse">
<stop stop-color="#E50913"/>
<stop offset="1" stop-color="#5C4243"/>
</linearGradient>
<linearGradient id="paint3_linear_1096_568" x1="313.628" y1="56.4008" x2="274.741" y2="44.2106" gradientUnits="userSpaceOnUse">
<stop stop-color="#E50913"/>
<stop offset="1" stop-color="#5C4243"/>
</linearGradient>
<linearGradient id="paint4_linear_1096_568" x1="414.428" y1="56.4008" x2="375.541" y2="44.2106" gradientUnits="userSpaceOnUse">
<stop stop-color="#E50913"/>
<stop offset="1" stop-color="#5C4243"/>
</linearGradient>
<linearGradient id="paint5_linear_1096_568" x1="393.436" y1="365.809" x2="214.813" y2="315.784" gradientUnits="userSpaceOnUse">
<stop stop-color="#E50913"/>
<stop offset="1" stop-color="#5C4243"/>
</linearGradient>
<linearGradient id="paint6_linear_1096_568" x1="350.572" y1="250.613" x2="331.7" y2="217.013" gradientUnits="userSpaceOnUse">
<stop stop-color="#E50913"/>
<stop offset="1" stop-color="#5C4243"/>
</linearGradient>
<linearGradient id="paint7_linear_1096_568" x1="360.064" y1="283.182" x2="344.106" y2="245.793" gradientUnits="userSpaceOnUse">
<stop stop-color="#E50913"/>
<stop offset="1" stop-color="#5C4243"/>
</linearGradient>
<linearGradient id="paint8_linear_1096_568" x1="372.27" y1="315.553" x2="359.305" y2="275.555" gradientUnits="userSpaceOnUse">
<stop stop-color="#E50913"/>
<stop offset="1" stop-color="#5C4243"/>
</linearGradient>
<linearGradient id="paint9_linear_1096_568" x1="383.153" y1="347.623" x2="371.99" y2="306.449" gradientUnits="userSpaceOnUse">
<stop stop-color="#E50913"/>
<stop offset="1" stop-color="#5C4243"/>
</linearGradient>
<linearGradient id="paint10_linear_1096_568" x1="405.646" y1="393.337" x2="365.535" y2="308.014" gradientUnits="userSpaceOnUse">
<stop stop-color="#E50913"/>
<stop offset="1" stop-color="#5C4243"/>
</linearGradient>
</defs>
</svg>
