<svg width="20" height="20" viewBox="0 0 20 20" fill="none" xmlns="http://www.w3.org/2000/svg">
<path d="M16 0H4C1.79087 0 0 1.79087 0 4V16C0 18.2092 1.79087 20 4 20H16C18.2092 20 20 18.2092 20 16V4C20 1.79087 18.2092 0 16 0Z" fill="url(#paint0_radial_250_2701)"/>
<path d="M16 0H4C1.79087 0 0 1.79087 0 4V16C0 18.2092 1.79087 20 4 20H16C18.2092 20 20 18.2092 20 16V4C20 1.79087 18.2092 0 16 0Z" fill="url(#paint1_radial_250_2701)" fill-opacity="0.68"/>
<path style="mix-blend-mode:overlay" d="M16 0H4C1.79087 0 0 1.79087 0 4V16C0 18.2092 1.79087 20 4 20H16C18.2092 20 20 18.2092 20 16V4C20 1.79087 18.2092 0 16 0Z" fill="url(#paint2_radial_250_2701)" fill-opacity="0.2"/>
<path d="M16 0H4C1.79087 0 0 1.79087 0 4V16C0 18.2092 1.79087 20 4 20H16C18.2092 20 20 18.2092 20 16V4C20 1.79087 18.2092 0 16 0Z" fill="url(#paint3_linear_250_2701)" fill-opacity="0.03"/>
<path d="M7.03966 17V10.8L12.8997 17H16.1597V16.84L9.41966 9.78L15.6397 3.08V3H12.3597L7.03966 8.92V3H4.39966V17H7.03966Z" fill="white"/>
<path d="M16 0H4C1.79087 0 0 1.79087 0 4V16C0 18.2092 1.79087 20 4 20H16C18.2092 20 20 18.2092 20 16V4C20 1.79087 18.2092 0 16 0Z" fill="url(#paint4_radial_250_2701)"/>
<path d="M16 0H4C1.79087 0 0 1.79087 0 4V16C0 18.2092 1.79087 20 4 20H16C18.2092 20 20 18.2092 20 16V4C20 1.79087 18.2092 0 16 0Z" fill="url(#paint5_radial_250_2701)" fill-opacity="0.57"/>
<path d="M16 0H4C1.79087 0 0 1.79087 0 4V16C0 18.2092 1.79087 20 4 20H16C18.2092 20 20 18.2092 20 16V4C20 1.79087 18.2092 0 16 0Z" fill="url(#paint6_radial_250_2701)" fill-opacity="0.68"/>
<path d="M16 0H4C1.79087 0 0 1.79087 0 4V16C0 18.2092 1.79087 20 4 20H16C18.2092 20 20 18.2092 20 16V4C20 1.79087 18.2092 0 16 0Z" fill="url(#paint7_radial_250_2701)" fill-opacity="0.08"/>
<path d="M16 0H4C1.79087 0 0 1.79087 0 4V16C0 18.2092 1.79087 20 4 20H16C18.2092 20 20 18.2092 20 16V4C20 1.79087 18.2092 0 16 0Z" fill="url(#paint8_linear_250_2701)" fill-opacity="0.03"/>
<path d="M7.03966 17V10.8L12.8997 17H16.1597V16.84L9.41966 9.78L15.6397 3.08V3H12.3597L7.03966 8.92V3H4.39966V17H7.03966Z" fill="white"/>
<defs>
<radialGradient id="paint0_radial_250_2701" cx="0" cy="0" r="1" gradientUnits="userSpaceOnUse" gradientTransform="translate(-15.2278 9.51597) rotate(140.172) scale(34.3883 41.4974)">
<stop stop-color="#1973C8"/>
<stop offset="1" stop-color="#0D25D1"/>
</radialGradient>
<radialGradient id="paint1_radial_250_2701" cx="0" cy="0" r="1" gradientUnits="userSpaceOnUse" gradientTransform="translate(-19.1936 -9.3025) rotate(178.314) scale(21.5056 15.8386)">
<stop stop-color="#5CA6EB"/>
<stop offset="1" stop-color="#5CA6EB" stop-opacity="0.0841893"/>
</radialGradient>
<radialGradient id="paint2_radial_250_2701" cx="0" cy="0" r="1" gradientUnits="userSpaceOnUse" gradientTransform="translate(-17.6323 1.29401) rotate(119.938) scale(11.4902 17.226)">
<stop stop-color="white"/>
<stop offset="0.999604" stop-color="white" stop-opacity="0.329873"/>
</radialGradient>
<linearGradient id="paint3_linear_250_2701" x1="18.8475" y1="11.7932" x2="0" y2="0" gradientUnits="userSpaceOnUse">
<stop stop-color="white" stop-opacity="0.184878"/>
<stop offset="1" stop-color="white"/>
</linearGradient>
<radialGradient id="paint4_radial_250_2701" cx="0" cy="0" r="1" gradientUnits="userSpaceOnUse" gradientTransform="translate(18.1734 2.1917) scale(34.4002)">
<stop stop-color="#2F80F2"/>
<stop offset="0.999657" stop-color="#A942B5"/>
</radialGradient>
<radialGradient id="paint5_radial_250_2701" cx="0" cy="0" r="1" gradientUnits="userSpaceOnUse" gradientTransform="translate(-3.79343e-06 0.429623) scale(31.8216)">
<stop stop-color="#45F9DE"/>
<stop offset="1" stop-color="#A942B5" stop-opacity="0"/>
</radialGradient>
<radialGradient id="paint6_radial_250_2701" cx="0" cy="0" r="1" gradientUnits="userSpaceOnUse" gradientTransform="translate(20 20) scale(19.2087)">
<stop stop-color="#E957C5"/>
<stop offset="1" stop-color="#A942B5" stop-opacity="0"/>
</radialGradient>
<radialGradient id="paint7_radial_250_2701" cx="0" cy="0" r="1" gradientUnits="userSpaceOnUse" gradientTransform="translate(10 10) scale(11.5304)">
<stop stop-opacity="0.184878"/>
<stop offset="1" stop-color="#101010"/>
</radialGradient>
<linearGradient id="paint8_linear_250_2701" x1="18.8475" y1="11.7932" x2="0" y2="0" gradientUnits="userSpaceOnUse">
<stop stop-color="white" stop-opacity="0.184878"/>
<stop offset="1" stop-color="white"/>
</linearGradient>
</defs>
</svg>
