<svg width="40" height="40" viewBox="0 0 40 40" fill="none" xmlns="http://www.w3.org/2000/svg">
<path d="M33.5106 0H15.23V24.6691H39.8991V6.38851C39.8991 2.84883 37.0503 0 33.5106 0ZM9.53231 0H6.38851C2.84883 0 0 2.84883 0 6.38851V9.53231H9.53231V0ZM0 15.23H9.53231V24.7623H0V15.23ZM30.4677 39.8991H33.6115C37.1512 39.8991 40 37.0503 40 33.5106V30.4677H30.4677V39.8991ZM15.23 30.4677H24.7623V40H15.23V30.4677ZM0 30.4677V33.6115C0 37.1512 2.84883 40 6.38851 40H9.53231V30.4677H0Z" fill="#A6A6A6"/>
</svg>
