<svg style="position: absolute; width: 0; height: 0; overflow: hidden;" version="1.1"
     xmlns="http://www.w3.org/2000/svg">
    <defs>
        <symbol id="icon-defi" viewBox="0 0 17 14">
            <path d="M15.99 13.374a.96.96 0 1 0 0-1.919H9.824a1.767 1.767 0 0 1-2.612.122L5.624 9.989l.452-.452 1.588 1.587a1.13 1.13 0 1 0 1.599-1.599L7.035 7.298H2.558v-.32H0v4.797h2.558v-.32h.64l3.198 1.92h9.594z"/>
            <path d="M14.373 10.816a5.756 5.756 0 1 0-8.898-4.157H7.3l2.415 2.414a1.758 1.758 0 0 1 .45 1.743h4.207zM8.636 7.298V4.74l2.558-1.6 2.558 1.6v2.558l-2.558 1.6-2.558-1.6z"/>
        </symbol>
        <symbol id="icon-staking" viewBox="0 0 17 16">
            <path d="M11.377 0a2.638 2.638 0 1 0-.01 5.277A2.638 2.638 0 0 0 11.376 0zM1.311 6.842H0v8.912h1.311V6.842zM6.165 7.336l.098.07c.13.098.244.179.357.25l.098.054c.173.105.372.16.574.162h.542c.139-.009.278-.009.417 0h.081a3.25 3.25 0 0 1 1.512.645 2.628 2.628 0 0 0-4.908-1.875c.075 0 .157.038.232.07.36.162.695.371.997.624z"/>
            <path d="M15.895 9.036a1.452 1.452 0 0 0-1.625-.07l-2.974 1.793h-6.42v-.542h4.978a2.28 2.28 0 0 0-.585-.758 2.167 2.167 0 0 0-1.083-.498 2.29 2.29 0 0 0-.341 0h-.542a2.2 2.2 0 0 1-1.084-.298 5.319 5.319 0 0 1-.617-.412 3.602 3.602 0 0 0-.83-.493 1.349 1.349 0 0 0-.54-.109H2.394v7.195h5.731a5.867 5.867 0 0 0 3.549-1.203l4.21-3.212a.845.845 0 0 0 .27-1.088.872.872 0 0 0-.26-.305z"/>
        </symbol>
        <symbol id="icon-transactions" viewBox="0 0 15 13">
            <path d="M8.999 8.008l-.943-1.616L5.471 7.9 3.94 5.278 1.97 8.726 0 12.175l3.972-.018 3.972-.018-1.53-2.623 2.585-1.508z"/>
            <path d="M5.987 6.12l-.919-1.63 2.608-1.47L6.184.374l7.943.08-2.02 3.42-2.021 3.419-1.492-2.645-2.607 1.47z"/>
        </symbol>
        <symbol id="icon-more" viewBox="0 0 17 10">
            <path d="M12.455 0h-7.91A4.552 4.552 0 0 0 0 4.545a4.552 4.552 0 0 0 4.545 4.546h7.91A4.552 4.552 0 0 0 17 4.545 4.552 4.552 0 0 0 12.455 0zm-8.16 6.03a1.482 1.482 0 0 1-1.486-1.485c0-.823.663-1.485 1.486-1.485s1.485.662 1.485 1.485c0 .823-.662 1.486-1.485 1.486zm4.205 0a1.482 1.482 0 0 1-1.485-1.485c0-.823.662-1.485 1.485-1.485.823 0 1.485.662 1.485 1.485 0 .823-.662 1.486-1.485 1.486zm4.205 0a1.482 1.482 0 0 1-1.485-1.485c0-.823.662-1.485 1.485-1.485.823 0 1.486.662 1.486 1.485 0 .823-.663 1.486-1.486 1.486z"/>
        </symbol>
        <symbol id="icon-right-arrow" viewBox="0 0 8 14">
            <path d="M8 6.84a1.177 1.177 0 0 1-.339.817l-5.648 5.65a1.178 1.178 0 0 1-1.67-1.663L5.16 6.827.343 2.009A1.178 1.178 0 0 1 2.013.347L7.66 5.996c.222.225.344.53.339.845z"/>
        </symbol>
        <symbol id="icon-down-arrow" fill="none" viewBox="0 0 14 8">
            <path d="M1 1l6 6 6-6" stroke="#B6B4C1" stroke-width="2" stroke-linecap="round" stroke-linejoin="round"/>
        </symbol>
        <symbol id="icon-exchange-arrow" fill="none" viewBox="0 0 11 12">
            <path d="M5.064 0a.774.774 0 0 0-.774.774V9.26L1.358 6.115A.774.774 0 1 0 .228 7.17l4.27 4.583a.774.774 0 0 0 1.13 0L9.9 7.171A.774.774 0 0 0 8.77 6.115L5.838 9.261V.774A.774.774 0 0 0 5.064 0z"
                  fill="#B7B9C8"/>
        </symbol>
        <symbol fill="none" viewBox="0 0 16 13" id="icon-arrow-right">
            <path d="M0.233699 6.92301C0.233699 7.1693 0.334179 7.40541 0.512717 7.57964C0.691253 7.75371 0.933564 7.85152 1.18618 7.85152L11.6313 7.85152L7.75976 11.3709C7.56478 11.5362 7.44703 11.7718 7.43374 12.0236C7.42029 12.2754 7.51263 12.5216 7.68917 12.7057C7.86572 12.8898 8.11152 12.996 8.36995 12.9999C8.62837 13.0039 8.87752 12.9051 9.05987 12.7265L14.7002 7.60325C14.8933 7.42771 15.0029 7.18174 15.0029 6.92427C15.0029 6.66681 14.8933 6.42081 14.7002 6.2453L9.05987 1.11952C8.81108 0.89314 8.45732 0.813309 8.13182 0.910142C7.8063 1.00714 7.55852 1.2659 7.48177 1.58928C7.40504 1.91249 7.511 2.25109 7.7598 2.47764L11.6313 5.99459L1.18622 5.99459C0.933611 5.99459 0.691281 6.0924 0.512753 6.26647C0.334216 6.44071 0.233735 6.6768 0.233736 6.9231L0.233699 6.92301Z" fill="#B7B9C8"></path>
        </symbol>
        <symbol id="icon-search" fill="none" viewBox="0 0 16 16">
            <path d="M14.5 14.5l-.413.412a.583.583 0 0 0 .826-.824l-.413.412zM9.633 9.63l.413-.413-.826.825.413-.412zM1.167 6.125H.582h.584zm4.958-4.958V.583v.584zm4.816 9.772l-.412.412.412-.412zm3.972 3.149l-4.867-4.872-.826.825 4.867 4.871.826-.824zM10.5 6.125c0 1.16-.461 2.273-1.282 3.094l.825.825a5.542 5.542 0 0 0 1.623-3.919H10.5zM9.218 9.219A4.375 4.375 0 0 1 6.125 10.5v1.167c1.47 0 2.88-.584 3.918-1.623l-.825-.825zM6.125 10.5c-1.16 0-2.273-.46-3.094-1.281l-.825.825a5.542 5.542 0 0 0 3.919 1.623V10.5zM3.03 9.219A4.375 4.375 0 0 1 1.75 6.125H.583c0 1.47.584 2.88 1.623 3.919l.825-.825zM1.75 6.125c0-1.16.46-2.273 1.281-3.094l-.825-.825A5.542 5.542 0 0 0 .583 6.125H1.75zM3.03 3.031A4.375 4.375 0 0 1 6.125 1.75V.583c-1.47 0-2.88.584-3.919 1.623l.825.825zM6.125 1.75c1.16 0 2.273.461 3.093 1.281l.825-.825A5.542 5.542 0 0 0 6.125.583V1.75zm3.093 1.281A4.375 4.375 0 0 1 10.5 6.125h1.166c0-1.47-.583-2.88-1.623-3.919l-.825.825zm.002 7.01l1.309 1.31.825-.824-1.308-1.31-.826.824zm1.309 1.31l3.558 3.561.825-.824-3.558-3.561-.825.825z"
                  fill="#fff"/>
        </symbol>
        <symbol id="icon-info" fill="none" viewBox="0 0 10 11">
            <path d="M10 5.5a5 5 0 1 0-10 0 5 5 0 0 0 10 0zM5 9.611A4.111 4.111 0 1 1 5 1.39a4.111 4.111 0 0 1 0 8.222z"
                  fill="#69696D"/>
            <path d="M5.001 3.59a.442.442 0 1 0 0-.886.442.442 0 0 0 0 .885zM5.782 7.639c-.153-.05-.34-.193-.34-.604V4.341a.073.073 0 0 0-.073-.073H4.295a.274.274 0 0 0-.078.536c.153.05.34.193.34.603v1.628c0 .41-.187.555-.34.604a.277.277 0 0 0-.175.367.274.274 0 0 0 .253.169h1.41a.274.274 0 0 0 .077-.536z"
                  fill="#69696D"/>
        </symbol>
        <symbol id="icon-menu" fill="none" viewBox="0 0 482 381">
            <path d="M33.602 0C15.043 0 0 15.043 0 33.602c0 18.555 15.043 33.602 33.602 33.602h414.4c18.559 0 33.602-15.043 33.602-33.602C481.604 15.043 466.561 0 448.002 0h-414.4zm0 156.8C15.043 156.8 0 171.843 0 190.402c0 18.555 15.043 33.602 33.602 33.602h414.4c18.559 0 33.602-15.043 33.602-33.602 0-18.559-15.043-33.602-33.602-33.602h-414.4zm0 156.8C15.043 313.6 0 328.643 0 347.202c0 18.555 15.043 33.602 33.602 33.602h414.4c18.559 0 33.602-15.043 33.602-33.602 0-18.559-15.043-33.602-33.602-33.602h-414.4z"
                  fill="#fff"/>
        </symbol>
        <symbol id="icon-telegram-plane" viewBox="0 0 32 32">
            <path d="M27.919 6.162l-4.225 19.925c-0.319 1.406-1.15 1.756-2.331 1.094l-6.438-4.744-3.106 2.988c-0.344 0.344-0.631 0.631-1.294 0.631l0.463-6.556 11.931-10.781c0.519-0.463-0.113-0.719-0.806-0.256l-14.75 9.287-6.35-1.988c-1.381-0.431-1.406-1.381 0.288-2.044l24.837-9.569c1.15-0.431 2.156 0.256 1.781 2.013z"></path>
        </symbol>
        <symbol id="icon-twitter-logo" viewBox="0 0 32 32">
            <path d="M32 6.079c-1.178 0.522-2.442 0.876-3.769 1.034 1.356-0.812 2.394-2.1 2.885-3.629-1.272 0.752-2.675 1.298-4.171 1.594-1.198-1.278-2.901-2.074-4.791-2.074-3.625 0-6.565 2.939-6.565 6.563 0 0.514 0.058 1.016 0.17 1.496-5.455-0.274-10.292-2.887-13.529-6.859-0.566 0.968-0.888 2.096-0.888 3.299 0 2.278 1.16 4.287 2.919 5.463-1.076-0.036-2.088-0.332-2.973-0.824v0.082c0 3.179 2.264 5.833 5.265 6.437-0.55 0.148-1.13 0.23-1.73 0.23-0.424 0-0.834-0.042-1.236-0.122 0.836 2.61 3.259 4.507 6.131 4.559-2.246 1.76-5.077 2.805-8.152 2.805-0.53 0-1.052-0.032-1.566-0.090 2.905 1.866 6.355 2.953 10.062 2.953 12.076 0 18.677-10.002 18.677-18.677l-0.022-0.85c1.29-0.92 2.405-2.076 3.283-3.391z"></path>
        </symbol>
        <symbol id="icon-medium-m" viewBox="0 0 32 32">
            <path d="M4.469 8.894c0.037-0.369-0.106-0.738-0.381-0.987l-2.819-3.4v-0.506h8.762l6.775 14.856 5.956-14.856h8.356v0.506l-2.413 2.313c-0.206 0.156-0.313 0.419-0.269 0.675v17c-0.044 0.256 0.063 0.519 0.269 0.675l2.356 2.313v0.506h-11.856v-0.506l2.444-2.369c0.238-0.238 0.238-0.313 0.238-0.675v-13.738l-6.794 17.244h-0.919l-7.9-17.244v11.556c-0.069 0.488 0.094 0.975 0.438 1.325l3.175 3.85v0.506h-9v-0.5l3.175-3.856c0.338-0.35 0.494-0.844 0.406-1.325v-13.363z"></path>
        </symbol>
        <symbol id="icon-copy"  viewBox="0 0 13 14">
            <path d="M2.88 3.064V1.097A.656.656 0 0 1 3.536.44h7.87a.656.656 0 0 1 .656.656v9.182a.656.656 0 0 1-.656.656H9.438v1.967a.658.658 0 0 1-.66.656H.917a.657.657 0 0 1-.66-.656L.257 3.72c0-.362.295-.656.66-.656H2.88zM1.57 4.376l-.002 7.87h6.559v-7.87H1.57zM4.19 3.064h5.247v6.559h1.312v-7.87H4.191v1.311z" fill="#D8D8D8"/>
        </symbol>
        <symbol id="icon-sort" fill="none" viewBox="0 0 20 20">
            <path d="M4.621 3.603a.603.603 0 1 0-1.207 0v10.612l-1.383-1.384a.604.604 0 1 0-.854.854l2.414 2.413.008.008a.6.6 0 0 0 .845-.007l2.414-2.414a.604.604 0 0 0-.854-.854l-1.383 1.384V3.603zM8.845 4.81a.603.603 0 0 1 .604-.603h8.448a.604.604 0 0 1 0 1.207H9.449a.603.603 0 0 1-.604-.604zm.604 3.017a.603.603 0 1 0 0 1.207h6.034a.604.604 0 0 0 0-1.207H9.449zm0 3.62a.604.604 0 0 0 0 1.208h3.62a.603.603 0 0 0 0-1.207H9.45zm0 3.621a.603.603 0 0 0 0 1.207h1.207a.603.603 0 0 0 0-1.207H9.448z"
                  fill="#A6A6A6"/>
        </symbol>
        <symbol id="icon-filter" fill="none" viewBox="0 0 16 16">
            <path d="M0 0l5.545 5.545V16l4.91-4.018V5.545L16 0H0z" fill="#A6A6A6"/>
        </symbol>
        <symbol id="icon-success" fill="none" viewBox="0 0 16 16">
            <circle cx="8" cy="8" r="7.46" fill="#47C28B" stroke="#47C28B" stroke-width="1.08"/>
            <path d="M7.05 10.753a.448.448 0 0 1-.308-.129L5.149 9.006a.43.43 0 0 1 .013-.616.43.43 0 0 1 .617.012l1.22 1.26 3.185-4.24a.446.446 0 0 1 .616-.089.446.446 0 0 1 .09.616l-3.48 4.624a.455.455 0 0 1-.321.18H7.05z"
                  fill="#282828"/>
        </symbol>
        <symbol id="icon-failed" fill="none" viewBox="0 0 16 16">
            <path d="M8 15.46A7.46 7.46 0 1 0 8 .54a7.46 7.46 0 0 0 0 14.92z" fill="#DB2438" stroke="#DB2438"
                  stroke-width="1.08"/>
            <rect width="1.001" height="7.083" rx=".5" transform="matrix(.7544 .65641 -.6855 .72806 10.05 5)"
                  fill="#282828"/>
            <rect width=".997" height="7.107" rx=".499" transform="matrix(-.69385 .72011 -.74684 -.665 11 9.911)"
                  fill="#282828"/>
        </symbol>
        <symbol id="icon-arrow-redirect" fill="none" viewBox="0 0 10 10">
            <path d="M1 8.5L8.5 1M1 1h7.5v7.5" stroke="#3E73F0" stroke-width="1.5" stroke-linecap="round"
                  stroke-linejoin="round"/>
        </symbol>
        <symbol id="icon-arrow-redirect-white" fill="none" viewBox="0 0 10 10">
            <path d="M1 8.5L8.5 1M1 1h7.5v7.5" stroke-width="1.5" stroke-linecap="round" stroke-linejoin="round"/>
        </symbol>
        <symbol id="icon-globe" viewBox="0 0 14 14">
            <path d="M7.73 6.231v7.042l1.813-1.811L10.859 14l.956-.496-1.267-2.441h2.446L7.73 6.23z"/>
            <path d="M13.147 7.526c.013-.092.028-.185.038-.28a6.4 6.4 0 0 0 .003-1.265c-.01-.11-.028-.216-.044-.322-.01-.076-.018-.153-.03-.227a6.606 6.606 0 0 0-5.32-5.32C7.698.091 7.61.082 7.524.07c-.087-.013-.19-.03-.28-.04a6.672 6.672 0 0 0-1.26 0c-.097.01-.191.026-.28.04-.09.014-.177.02-.262.035a6.608 6.608 0 0 0-5.32 5.32c-.014.08-.021.162-.034.243-.012.082-.045.212-.057.314-.02.206-.031.42-.031.626 0 .206.011.42.03.624.01.108.029.212.044.318.011.077.018.155.032.232a6.607 6.607 0 0 0 5.32 5.32c.081.014.164.023.245.034.081.011.202.03.305.04.206.02.42.031.625.031h.02v-1.54h-.01a5.042 5.042 0 0 1-.866-.08 13.473 13.473 0 0 1-.534-2.608c.455.028.924.045 1.4.045h.02v-.88h-.02c-.528 0-1.024-.019-1.487-.05A21.27 21.27 0 0 1 5.12 5.12a22.503 22.503 0 0 1 2.973 0v.08c.137.048.264.123.371.222l.542.497c-.007-.244-.021-.48-.037-.717.893.092 1.774.272 2.631.538.05.285.077.575.078.865 0 .29-.025.579-.075.864-.209.068-.43.14-.68.199l.517.474 1.221 1.12a6.57 6.57 0 0 0 .445-1.477c.021-.085.03-.175.041-.259zm-8.4-5.625a16.026 16.026 0 0 0-.428 2.41c-.813.081-1.618.224-2.41.428A5.092 5.092 0 0 1 4.743 1.9h.005zm0 9.415a5.09 5.09 0 0 1-2.843-2.84c.79.205 1.596.348 2.41.429.08.813.223 1.618.426 2.41h.007zM4.24 8.013a13.51 13.51 0 0 1-2.618-.539 4.761 4.761 0 0 1 0-1.732c.853-.265 1.73-.446 2.618-.539a22.8 22.8 0 0 0-.045 1.4c0 .476.017.956.045 1.41zm2.372-3.822c-.48 0-.95.016-1.4.044a13.5 13.5 0 0 1 .539-2.618 4.75 4.75 0 0 1 1.73 0c.263.853.44 1.73.53 2.619-.45-.03-.92-.045-1.4-.045zm2.294.12a16.05 16.05 0 0 0-.427-2.412 5.09 5.09 0 0 1 2.84 2.84 16 16 0 0 0-2.413-.429z"/>
        </symbol>
        <symbol id="icon-docs" viewBox="0 0 14 14">
            <path d="M8.009 4.753a.14.14 0 0 0-.13.13v.57H6.12v-.57a.14.14 0 0 0-.13-.13.14.14 0 0 0-.13.13v.83h2.279v-.83a.14.14 0 0 0-.13-.13z"/>
            <path d="M7 0C3.142 0 0 3.142 0 7s3.142 7 7 7 7-3.142 7-7-3.142-7-7-7zm2.914 10.289c0 .374-.31.683-.684.683H4.77a.688.688 0 0 1-.684-.683V7.26h5.812v3.028h.016zm0-3.55H4.086V3.713c0-.375.31-.684.684-.684h4.444c.374 0 .684.31.684.684V6.74h.016z"/>
            <path d="M8.139 9.117a.14.14 0 0 0-.13-.13.14.14 0 0 0-.13.13v.57H6.12v-.57a.14.14 0 0 0-.13-.13.14.14 0 0 0-.13.13v.83h2.279v-.83z"/>
        </symbol>
        <symbol id="icon-bug" viewBox="0 0 14 14">
            <path fill-rule="evenodd" clip-rule="evenodd"
                  d="M7 14A7 7 0 1 0 7 0a7 7 0 0 0 0 14zm3.778-6.899a.25.25 0 0 1-.25.25v.006H9.186a3.79 3.79 0 0 1-.225.7 1.386 1.386 0 0 1 1.249.93l.4 1.154a.251.251 0 0 1-.157.318.368.368 0 0 1-.081.013.247.247 0 0 1-.237-.169l-.4-1.154a.895.895 0 0 0-.842-.6h-.181c-.437.75-1.093 1.342-1.823 1.342S5.503 9.298 5.066 8.55h-.18a.895.895 0 0 0-.844.6l-.4 1.154a.251.251 0 0 1-.473-.162l.399-1.155c.187-.537.68-.905 1.248-.93a3.788 3.788 0 0 1-.224-.699H3.25a.25.25 0 0 1-.25-.25.25.25 0 0 1 .25-.25h1.267c-.006-.056-.006-.112-.006-.168 0-.2.025-.387.068-.568a1.387 1.387 0 0 1-1.011-.899l-.4-1.155a.251.251 0 0 1 .475-.162l.393 1.155a.895.895 0 0 0 .712.587 2.39 2.39 0 0 1 .824-.937A1.364 1.364 0 0 1 6.889 3c.749 0 1.36.612 1.348 1.355 0 .118-.012.237-.043.35.355.23.636.555.823.935a.882.882 0 0 0 .712-.586l.4-1.155a.251.251 0 0 1 .474.162l-.4 1.155c-.156.462-.549.799-1.01.899.043.18.068.374.068.568 0 .056 0 .112-.006.168h1.273a.25.25 0 0 1 .25.25zM6.888 3.5a.863.863 0 0 0-.86.862c0 .037 0 .075.006.112a2.419 2.419 0 0 1 1.71 0c.006-.037.006-.075.006-.112a.863.863 0 0 0-.861-.862z"/>
        </symbol>
        <symbol id="icon-testnet" viewBox="0 0 14 14">
            <path fill-rule="evenodd" clip-rule="evenodd"
                  d="M7 14A7 7 0 1 0 7 0a7 7 0 0 0 0 14zM4.93 3.111h4.222a.264.264 0 1 1 0 .528h-.235v6.037a1.879 1.879 0 0 1-3.757 0V3.64h-.23a.264.264 0 1 1 0-.528zm2.076 2.777c.726-.1 1.246-.757 1.386-.956V3.639H5.686v2.72a3.451 3.451 0 0 1 1.32-.47z"/>
        </symbol>
        <symbol id="icon-analytics" viewBox="0 0 14 14">
            <path fill-rule="evenodd" clip-rule="evenodd"
                  d="M14 7A7 7 0 1 1 0 7a7 7 0 0 1 14 0zM6.946 4.012h1.037c.087 0 .157.086.157.156v3.933c0 .087-.07.157-.157.157H6.946c-.086 0-.156-.087-.156-.157V4.168c0-.086.07-.156.156-.156zm-.92 1.565H4.99a.157.157 0 0 0-.157.157V8.1c0 .07.07.157.157.157h1.037c.086 0 .156-.07.156-.157V5.734c0-.07-.07-.157-.156-.157zm2.877-.587H9.94c.087 0 .157.087.157.157v2.955c0 .086-.07.156-.157.156H8.903c-.086 0-.156-.086-.156-.156V5.147c0-.087.07-.157.156-.157zM4.207 8.786h6.692a.156.156 0 0 1 .156.157v.782a.156.156 0 0 1-.156.157H3.267a.157.157 0 0 1-.156-.157V3.268c0-.087.07-.157.156-.157h.783a.157.157 0 0 1 .157.157v5.518z"/>
        </symbol>
        <symbol id="icon-governance" viewBox="0 0 14 14">
            <path fill-rule="evenodd" clip-rule="evenodd"
                  d="M7 14A7 7 0 1 0 7 0a7 7 0 0 0 0 14zm3.36-3.16v-3.2H3.64v3.2h2.24v-.64h2.08v.64h2.4zM8.286 6.033c.327.27.534.623.626 1.024 0 0 .336-.057.336.263H4.773c0-.32.307-.276.307-.276.098-.402.306-.732.626-1.002.23-.191.492-.274.783-.367.11-.035.223-.071.341-.115h.01v-2.4h.32v.212c.16-.09.435-.137.639-.137.061 0 .118.01.204.03.094.02.186.044.278.072.102.03.193.056.282.073.085.021.157.03.216.03a.59.59 0 0 0 .187-.03l.114-.029V4.54l-.082.015c-.098.018-.143.026-.219.026a.97.97 0 0 1-.214-.027 3.974 3.974 0 0 1-.283-.075 9.852 9.852 0 0 0-.286-.073c-.09-.02-.166-.029-.226-.029a.658.658 0 0 0-.141.022c-.067.014-.13.034-.201.058l-.184.068-.084.023V5.56h.002c.123.046.242.082.356.117.286.089.542.168.768.356z"/>
        </symbol>
        <symbol id="icon-switch" fill="none" viewBox="0 0 15 13">
            <path d="M5.685 3.253h4.06V4.88l2.432-2.433L9.744 0v1.627H5.685A5.694 5.694 0 0 0 0 7.312h1.627a4.063 4.063 0 0 1 4.058-4.059zM12.998 5.7a4.063 4.063 0 0 1-4.06 4.06H4.88V8.132l-2.447 2.432 2.432 2.432v-1.611h4.059A5.693 5.693 0 0 0 14.609 5.7h-1.611z"
                  fill="#ECECEC"/>
        </symbol>
        <symbol id="icon-disconnect" fill="none" viewBox="0 0 14 19">
            <path d="M5.212 18.446A5.217 5.217 0 0 1 .39 11.25l2.02-4.893a.868.868 0 1 1 1.605.662L2 11.912a3.472 3.472 0 0 0 4.985 4.307.868.868 0 1 1 .886 1.493 5.19 5.19 0 0 1-2.66.734zM10.54 12.548a.868.868 0 0 1-.802-1.198l1.983-4.82a3.472 3.472 0 0 0-4.983-4.307A.868.868 0 1 1 5.853.73a5.207 5.207 0 0 1 7.473 6.462L11.34 12.01a.868.868 0 0 1-.799.54zM10.16 18.022a.867.867 0 0 1-.802-.533l-6.6-15.867A.868.868 0 1 1 4.36.954l6.604 15.865a.868.868 0 0 1-.805 1.203z"
                  fill="#FCFCFC"/>
        </symbol>
        <symbol id="icon-close" viewBox="0 0 16 16">
            <path d="M9.217 8l6.493-6.522c.348-.348.348-.898 0-1.217-.348-.348-.899-.348-1.218 0L8 6.783 1.478.26C1.13-.087.58-.087.261.26c-.348.348-.348.898 0 1.217L6.753 8 .261 14.522c-.348.348-.348.898 0 1.217.174.174.406.261.609.261a.884.884 0 0 0 .608-.26L8 9.216l6.522 6.522c.173.174.405.261.608.261a.884.884 0 0 0 .61-.26c.347-.349.347-.9 0-1.218L9.216 8z"/>
        </symbol>
        <symbol id="icon-right-arrow-bold" viewBox="0 0 28 23">
            <path d="M27.833 11.617L17.143.927l-2.04 2.053 7.188 7.188H.654v2.9h21.637l-7.187 7.186 2.038 2.054 10.69-10.69z" fill="#fff"/>
        </symbol>
        <symbol id="icon-success-circle"  viewBox="0 0 25 25">
            <path d="M12.5 24.583C5.826 24.583.417 19.173.417 12.5.417 5.826 5.827.417 12.5.417c6.674 0 12.083 5.41 12.083 12.083 0 6.674-5.41 12.083-12.083 12.083zm0-2.416a9.666 9.666 0 1 0 0-19.333 9.666 9.666 0 0 0 0 19.333zm-1.205-4.834l-5.127-5.127 1.709-1.708 3.418 3.418 6.835-6.835 1.71 1.708-8.545 8.544z" />
        </symbol>
        <symbol id="icon-tick" viewBox="0 0 15 11" >
            <path d="M5.879 10.917L.752 5.79 2.46 4.08 5.88 7.5 12.713.664l1.71 1.709-8.544 8.544z" />
        </symbol>
        <symbol id="icon-error" fill="none" viewBox="0 0 25 26">
            <path d="M12.5 25.083C5.826 25.083.417 19.673.417 13 .417 6.326 5.827.917 12.5.917c6.674 0 12.083 5.41 12.083 12.083 0 6.674-5.41 12.083-12.083 12.083zm0-2.416a9.667 9.667 0 1 0 0-19.334 9.667 9.667 0 0 0 0 19.334zm-1.208-6.042h2.416v2.417h-2.416v-2.417zm0-9.667h2.416v7.25h-2.416v-7.25z" fill="#DB2438"/>
        </symbol>
        <symbol id="icon-success-full" fill="none" viewBox="0 0 25 25">
            <circle cx="12.5" cy="12.5" r="11.656" fill="#47C28B" stroke="#47C28B" stroke-width="1.688"/>
            <path d="M11.016 16.801a.7.7 0 0 1-.482-.2l-2.488-2.529a.673.673 0 0 1 .02-.963c.26-.261.702-.261.963.02l1.906 1.966 4.977-6.622c.22-.3.662-.36.963-.14.301.22.361.662.14.963l-5.437 7.224a.71.71 0 0 1-.502.281h-.06z" fill="#282828"/>
        </symbol>
        <symbol id="icon-success-full-disable" fill="none" viewBox="0 0 25 25">
            <circle cx="12.5" cy="12.5" r="12.5" fill="#787878"/>
            <path d="M11.016 16.801a.7.7 0 0 1-.482-.2l-2.488-2.529a.673.673 0 0 1 .02-.963c.26-.261.702-.261.963.02l1.906 1.966 4.977-6.622c.22-.3.662-.36.963-.14.301.22.361.662.14.963l-5.437 7.224a.71.71 0 0 1-.502.281h-.06z" fill="#282828"/>
        </symbol>
        <symbol id="icon-lightning" fill="none" viewBox="0 0 10 18">
            <path d="M9.958 6.714c-.069-.137-.222-.222-.41-.222H5.648L6.77.46c.017-.102.034-.239-.068-.358A.275.275 0 0 0 6.482 0c-.188 0-.29.153-.324.204L.092 9.15c-.102.153-.12.324-.051.46.068.137.221.222.409.222h3.766l-1.16 6.764c-.016.102-.033.239.07.358.05.068.135.102.238.102.187 0 .29-.17.323-.221l6.237-9.662c.085-.153.102-.323.034-.46z" fill="#FFC10B"/>
        </symbol>
        <symbol id="icon-new-tab"  viewBox="0 0 16">
            <path d="M1 16a1 1 0 0 1-1-1V1a1 1 0 0 1 1-1h6.5a.5.5 0 0 1 .5.5v1a.5.5 0 0 1-.5.5H2v12h12V8.5a.5.5 0 0 1 .5-.5h1a.5.5 0 0 1 .5.5V15a1 1 0 0 1-1 1H1z"/>
            <path d="M15.5.002h-5a.499.499 0 0 0-.354.853l1.793 1.793-5 5a.5.5 0 0 0 0 .707l.708.707a.5.5 0 0 0 .708 0l2.5-2.5 2.499-2.5 1.792 1.793A.5.5 0 0 0 16 5.502v-5c0-.278-.224-.5-.5-.5z"/>
        </symbol>
        <symbol id="icon-chevron"  viewBox="0 0 266 438">
            <path d="M258.476 235.971L64.132 430.314c-9.373 9.373-24.569 9.373-33.941 0L7.524 407.647c-9.357-9.357-9.375-24.522-.04-33.901L161.505 219 7.484 64.255c-9.335-9.379-9.317-24.544.04-33.901L30.191 7.687c9.373-9.373 24.569-9.373 33.941 0L258.475 202.03c9.373 9.372 9.373 24.568.001 33.941z"/>
        </symbol>
        <symbol id="icon-chevroncolorchange" fill="none" viewBox="0 0 266 438">
            <path d="M258.476 235.971L64.132 430.314c-9.373 9.373-24.569 9.373-33.941 0L7.524 407.647c-9.357-9.357-9.375-24.522-.04-33.901L161.505 219 7.484 64.255c-9.335-9.379-9.317-24.544.04-33.901L30.191 7.687c9.373-9.373 24.569-9.373 33.941 0L258.475 202.03c9.373 9.372 9.373 24.568.001 33.941z" fill="#fff"/>
        </symbol>
        <symbol id="icon-left-arrow" viewBox="0 0 20 12">
            <path d="M19.204 4.747H2.71l3.368-3.391A.793.793 0 0 0 6.073.23.793.793 0 0 0 4.95.236L.232 4.981c-.31.31-.31.81 0 1.125l4.717 4.75a.802.802 0 0 0 1.129.004.793.793 0 0 0 .005-1.124L2.71 6.34h16.494a.796.796 0 1 0 0-1.593z"/>
        </symbol>
        <symbol id="icon-wallet" viewBox="0 0 16 14">
            <path d="M13.713 0H4.567A2.303 2.303 0 0 0 2.28 2.287v2.94h1.307v-2.94a.98.98 0 0 1 .98-.98h9.146a.98.98 0 0 1 .98.98v9.146a.98.98 0 0 1-.98.98H4.567a.98.98 0 0 1-.98-.98V8.167H2.28v3.266a2.303 2.303 0 0 0 2.287 2.287h9.146A2.303 2.303 0 0 0 16 11.433V2.287A2.303 2.303 0 0 0 13.713 0z"/>
            <path d="M10.447 9.147a2.287 2.287 0 1 1 0-4.574 2.287 2.287 0 0 1 0 4.574zm0-3.267a.98.98 0 1 0 0 1.96.98.98 0 0 0 0-1.96zM4.41 8.82H2.123a2.123 2.123 0 1 1 0-4.247H4.41a2.123 2.123 0 0 1 0 4.247zM2.123 5.88a.817.817 0 1 0 0 1.633H4.41a.817.817 0 1 0 0-1.633H2.123z"/>
        </symbol>

        <symbol id="icon-explorer" viewBox="0 0 16 16">
            <path d="M8 0C3.589 0 0 3.589 0 8s3.589 8 8 8 8-3.589 8-8-3.589-8-8-8zm0 14.636A6.644 6.644 0 0 1 1.364 8 6.644 6.644 0 0 1 8 1.364 6.644 6.644 0 0 1 14.636 8 6.644 6.644 0 0 1 8 14.636z"/>
            <path d="M10.446 3.609c-.59-.33-3.184 3.205-3.513 3.795-.33.59-1.968 4.658-1.378 4.987.59.33 3.184-3.205 3.513-3.795.329-.59 1.968-4.658 1.378-4.987zm-1.894 4.7a.633.633 0 1 1-1.104-.618.633.633 0 0 1 1.104.617z"/>
        </symbol>
        <symbol id="icon-exclamation" fill="none" viewBox="0 0 29 26">
            <path d="M9.617 3.052c2.194-3.8 6.765-4.177 9.042-.242l8.778 15.21c2.203 3.804.228 7.954-4.308 7.954H5.564c-4.383 0-6.998-3.773-4.73-7.708L9.617 3.052zm4.554 14.293c.86 0 1.557.697 1.557 1.553 0 .86-.697 1.557-1.557 1.557a1.556 1.556 0 0 1 0-3.11zm-.957-8.068c0-1.26 1.913-1.26 1.913 0v5.36c0 1.26-1.913 1.26-1.913 0v-5.36zm-1.943-5.269L2.488 19.214c-1.535 2.667.167 4.847 3.076 4.847h17.565c3.159 0 4.067-2.645 2.659-5.084l-8.783-15.21c-1.535-2.667-4.277-2.281-5.734.241z"
                  fill="#FF434C"/>
        </symbol>
        <symbol id="icon-lock" fill="none" viewBox="0 0 14 22">
            <path d="M7 0a5.182 5.182 0 0 0-5.182 5.075c-.007.98-.003 1.976-.003 2.962H0v13.222h14V8.037h-1.815c-.004-.986.008-1.982-.003-2.962A5.182 5.182 0 0 0 7 0zm0 1.814a3.367 3.367 0 0 1 3.37 3.371v2.852H3.63V5.185A3.367 3.367 0 0 1 7 1.814zm-.881 9.885l1.815.016-.016 1.708 1.629-.514.544 1.731-1.628.513.991 1.39-1.477 1.054-.991-1.39-1.016 1.372-1.459-1.08 1.016-1.372-1.618-.542.576-1.72 1.618.54.016-1.706z"
                  fill="#8D9CB5"/>
        </symbol>
        <symbol id="icon-help" viewBox="0 0 16 16">
            <path d="M8 0a8 8 0 1 0 0 16A8 8 0 0 0 8 0zm0 14.857A6.857 6.857 0 1 1 8 1.143a6.857 6.857 0 0 1 0 13.714z"/>
            <path d="M10.023 4.154a3.097 3.097 0 0 0-3.291-.428 2.857 2.857 0 0 0-1.589 2.56.571.571 0 1 0 1.143 0 1.714 1.714 0 0 1 .954-1.537 1.937 1.937 0 0 1 2.029.268 1.937 1.937 0 0 1 .268 2.029A1.714 1.714 0 0 1 8 8a.571.571 0 0 0-.571.571v1.143a.572.572 0 0 0 1.143 0V9.08a2.857 2.857 0 0 0 1.988-1.526 3.097 3.097 0 0 0-.428-3.291.57.57 0 0 0-.109-.109zM8 10.857a.571.571 0 0 0-.572.572V12a.572.572 0 0 0 1.143 0v-.571A.571.571 0 0 0 8 10.857z"/>
        </symbol>

        <symbol id="icon-info" fill="none" viewBox="0 0 15 15">
            <path d="M9.472 3.302a.803.803 0 1 1-1.55-.415.803.803 0 0 1 1.55.415zM7.544 10.5l1.263-4.715c.234-.873-1.106-1.233-1.972-.814A3.366 3.366 0 0 0 5.5 6.135c.544-.24 1.76-.78 1.318.87L5.554 11.72c-.233.872 1.106 1.233 1.973.814a3.365 3.365 0 0 0 1.335-1.165c-.545.239-1.76.78-1.318-.87zM15 7.5a7.5 7.5 0 1 1-15 0 7.5 7.5 0 0 1 15 0zm-.833 0A6.666 6.666 0 1 0 7.5 14.167 6.674 6.674 0 0 0 14.167 7.5z"
                  fill="#8D9CB5"/>
        </symbol>

        <symbol id="icon-error-info" fill="none" viewBox="0 0 15 15">
            <path d="M9.472 3.302a.803.803 0 1 1-1.55-.415.803.803 0 0 1 1.55.415zM7.544 10.5l1.263-4.715c.234-.873-1.106-1.233-1.972-.814A3.366 3.366 0 0 0 5.5 6.135c.544-.24 1.76-.78 1.318.87L5.554 11.72c-.233.872 1.106 1.233 1.973.814a3.365 3.365 0 0 0 1.335-1.165c-.545.239-1.76.78-1.318-.87zM15 7.5a7.5 7.5 0 1 1-15 0 7.5 7.5 0 0 1 15 0zm-.833 0A6.666 6.666 0 1 0 7.5 14.167 6.674 6.674 0 0 0 14.167 7.5z"
                  fill="#B00020"/>
        </symbol>

        <symbol id="icon-left-arrow" viewBox="0 0 20 12">
            <path d="M19.204 4.747H2.71l3.368-3.391A.793.793 0 0 0 6.073.23.793.793 0 0 0 4.95.236L.232 4.981c-.31.31-.31.81 0 1.125l4.717 4.75a.802.802 0 0 0 1.129.004.793.793 0 0 0 .005-1.124L2.71 6.34h16.494a.796.796 0 1 0 0-1.593z"/>
        </symbol>
        <symbol id="icon-profile" fill="none" viewBox="0 0 21 21">
            <path d="M14.946 19.63H13.12v-5.478a1.132 1.132 0 0 0-1.132-1.132H9.01a1.132 1.132 0 0 0-1.132 1.132v5.478H6.053v-5.478a2.963 2.963 0 0 1 2.958-2.958h2.977a2.963 2.963 0 0 1 2.958 2.958v5.478z"
                  fill="#5F646C"/>
            <path d="M10.5 12.783a3.652 3.652 0 1 1 0-7.305 3.652 3.652 0 0 1 0 7.305zm0-5.479a1.826 1.826 0 1 0 0 3.653 1.826 1.826 0 0 0 0-3.653z"
                  fill="#5F646C"/>
            <path d="M10.5 21a10.5 10.5 0 1 1 0-21 10.5 10.5 0 0 1 0 21zm0-19.174a8.674 8.674 0 1 0 0 17.348 8.674 8.674 0 0 0 0-17.348z"
                  fill="#5F646C"/>
        </symbol>
        <symbol id="icon-copy" viewBox="0 0 12 13">
            <path d="M6.344 8.218a.33.33 0 0 1-.331.33H2.55a.33.33 0 0 1 0-.66h3.464a.33.33 0 0 1 .33.33zm-.331 1.383H2.55a.33.33 0 1 0 0 .662h3.464a.33.33 0 1 0 0-.662h-.001zm5.33-5.639v5.365a1.058 1.058 0 0 1-1.056 1.056h-1.92v1.11a1.058 1.058 0 0 1-1.057 1.055H1.251a1.058 1.058 0 0 1-1.056-1.056V3.673A1.058 1.058 0 0 1 1.25 2.617h1.92v-1.11A1.058 1.058 0 0 1 4.229.453h2.921v2.787a1.058 1.058 0 0 0 1.057 1.056h1.358a.33.33 0 0 0 0-.661H8.206a.397.397 0 0 1-.395-.395V.646l3.422 3.07a.331.331 0 0 1 .11.246zM7.705 6.275L4.823 3.691V5.4a.395.395 0 0 0 .395.396h1.356a.33.33 0 1 1 0 .661H5.218a1.058 1.058 0 0 1-1.056-1.056V3.279H1.25a.394.394 0 0 0-.395.394v7.82a.394.394 0 0 0 .395.394h6.06a.394.394 0 0 0 .394-.395V6.275z"/>
        </symbol>
        <symbol id="icon-up-arrow" fill="none" viewBox="0 0 12 12">
            <path d="M0 6a6 6 0 1 0 12 0A6 6 0 0 0 0 6zm9.158 1.137l-.896.884L6 5.765 3.738 8.021l-.896-.89L6 3.973l3.158 3.164z"
                  fill="#E50913"/>
        </symbol>
        <symbol id="icon-down-arrow" fill="none" viewBox="0 0 12 12">
            <path d="M12 6A6 6 0 1 0 0 6a6 6 0 0 0 12 0zM2.842 4.863l.896-.884L6 6.235l2.262-2.256.896.89L6 8.027 2.842 4.863z"
                  fill="#8D9CB5" fill-opacity=".48"/>
        </symbol>
        <symbol id="icon-success" fill="none" viewBox="0 0 14 11">
            <path fill-rule="evenodd" clip-rule="evenodd"
                  d="M13.67 2.239l-7.851 8.166a1.078 1.078 0 0 1-1.574 0L.328 6.295a1.194 1.194 0 0 1 0-1.643 1.078 1.078 0 0 1 1.574 0l3.147 3.287L12.114.595a1.078 1.078 0 0 1 1.573 0c.42.455.42 1.19-.017 1.644z"
                  fill="#4FBE89"/>
        </symbol>
        <symbol id="icon-pending" fill="none" viewBox="0 0 16 6">
            <circle cx="2" cy="4" r="2" fill="#FFC554"/>
            <circle cx="8" cy="2" r="2" fill="#FFC554"/>
            <circle cx="14" cy="4" r="2" fill="#FFC554"/>
        </symbol>
        <symbol id="icon-right-coursel" fill="none" viewBox="0 0 11 6">
            <path d="M10.077 0L5.842 4.25 1.544.094.653 1l5.221 5L11 .875 10.077 0z" fill="#D2D2D2"/>
        </symbol>
        <symbol id="icon-telegram-plane" viewBox="0 0 32 32">
            <path d="M27.919 6.162l-4.225 19.925c-0.319 1.406-1.15 1.756-2.331 1.094l-6.438-4.744-3.106 2.988c-0.344 0.344-0.631 0.631-1.294 0.631l0.463-6.556 11.931-10.781c0.519-0.463-0.113-0.719-0.806-0.256l-14.75 9.287-6.35-1.988c-1.381-0.431-1.406-1.381 0.288-2.044l24.837-9.569c1.15-0.431 2.156 0.256 1.781 2.013z"></path>
        </symbol>
        <symbol id="icon-twitter-logo" viewBox="0 0 32 32">
            <path d="M32 6.079c-1.178 0.522-2.442 0.876-3.769 1.034 1.356-0.812 2.394-2.1 2.885-3.629-1.272 0.752-2.675 1.298-4.171 1.594-1.198-1.278-2.901-2.074-4.791-2.074-3.625 0-6.565 2.939-6.565 6.563 0 0.514 0.058 1.016 0.17 1.496-5.455-0.274-10.292-2.887-13.529-6.859-0.566 0.968-0.888 2.096-0.888 3.299 0 2.278 1.16 4.287 2.919 5.463-1.076-0.036-2.088-0.332-2.973-0.824v0.082c0 3.179 2.264 5.833 5.265 6.437-0.55 0.148-1.13 0.23-1.73 0.23-0.424 0-0.834-0.042-1.236-0.122 0.836 2.61 3.259 4.507 6.131 4.559-2.246 1.76-5.077 2.805-8.152 2.805-0.53 0-1.052-0.032-1.566-0.090 2.905 1.866 6.355 2.953 10.062 2.953 12.076 0 18.677-10.002 18.677-18.677l-0.022-0.85c1.29-0.92 2.405-2.076 3.283-3.391z"></path>
        </symbol>
        <symbol id="icon-reddit-round" viewBox="0 0 15 15">
            <path d="M13.328 5.495c-.474 0-.89.199-1.197.509-1.129-.791-2.65-1.3-4.335-1.355L8.67.653l2.788.634a1.25 1.25 0 0 0 1.24 1.256c.695 0 1.254-.58 1.254-1.272C13.953.58 13.398 0 12.7 0c-.487 0-.907.298-1.117.704L8.503.014c-.155-.043-.307.07-.348.227l-.961 4.405c-1.673.07-3.178.58-4.31 1.37a1.672 1.672 0 0 0-1.213-.521C-.087 5.495-.663 7.883.947 8.7a3.63 3.63 0 0 0-.083.79c0 2.684 2.985 4.858 6.65 4.858 3.68 0 6.663-2.174 6.663-4.857 0-.27-.028-.551-.097-.804 1.577-.82.996-3.191-.752-3.192zM3.501 8.869c0-.704.556-1.27 1.255-1.27.682 0 1.239.562 1.239 1.27a1.25 1.25 0 0 1-1.24 1.256A1.253 1.253 0 0 1 3.502 8.87zm6.774 2.994c-1.15 1.165-4.398 1.165-5.549 0-.127-.113-.127-.311 0-.439a.3.3 0 0 1 .418 0c.878.913 3.793.928 4.71 0a.3.3 0 0 1 .418 0c.13.129.13.327.003.439zm-.026-1.735a1.249 1.249 0 0 1-1.238-1.255c0-.704.556-1.271 1.238-1.271.696 0 1.255.563 1.255 1.271a1.258 1.258 0 0 1-1.255 1.255z"/>
        </symbol>
        <symbol id="icon-medium-m" viewBox="0 0 32 32">
            <path d="M4.469 8.894c0.037-0.369-0.106-0.738-0.381-0.987l-2.819-3.4v-0.506h8.762l6.775 14.856 5.956-14.856h8.356v0.506l-2.413 2.313c-0.206 0.156-0.313 0.419-0.269 0.675v17c-0.044 0.256 0.063 0.519 0.269 0.675l2.356 2.313v0.506h-11.856v-0.506l2.444-2.369c0.238-0.238 0.238-0.313 0.238-0.675v-13.738l-6.794 17.244h-0.919l-7.9-17.244v11.556c-0.069 0.488 0.094 0.975 0.438 1.325l3.175 3.85v0.506h-9v-0.5l3.175-3.856c0.338-0.35 0.494-0.844 0.406-1.325v-13.363z"></path>
        </symbol>
        <symbol id="icon-linkedin-footer" viewBox="0 0 11 10">
            <title>Linkedin</title>
            <path d="M2.335 3.213H.324a.162.162 0 0 0-.162.162v6.463c0 .09.072.161.162.161h2.011c.09 0 .162-.072.162-.161V3.375a.162.162 0 0 0-.162-.162zM1.33 0C.598 0 .002.595.002 1.326a1.328 1.328 0 0 0 2.654 0C2.657.595 2.062 0 1.33 0zM7.452 3.053c-.808 0-1.405.347-1.767.742v-.42a.162.162 0 0 0-.162-.162H3.596a.162.162 0 0 0-.161.162v6.463c0 .09.072.162.161.162h2.008c.09 0 .162-.072.162-.162V6.64c0-1.077.292-1.497 1.043-1.497.819 0 .884.673.884 1.553v3.142c0 .09.072.162.161.162h2.008c.09 0 .162-.072.162-.162V6.293c0-1.602-.306-3.24-2.572-3.24z"/>
        </symbol>
        <symbol id="icon-announcements" viewBox="0 0 12 8">
            <title>Announcements</title>
            <path d="M11.37 3.888a1.122 1.122 0 0 1-1.121 1.121V2.766a1.122 1.122 0 0 1 1.122 1.122zM2.958 2.205H1.835a1.683 1.683 0 0 0 0 3.365l.561 2.244h1.122l-.56-2.244V2.205zM9.128.695c-.05 0-.1.007-.148.02l-5.462 1.49V5.57l5.461 1.49a.56.56 0 0 0 .709-.541V1.257a.561.561 0 0 0-.56-.562z"/>
        </symbol>
        <symbol id="icon-discord" viewBox="0 0 11 14">
            <title>discord</title>
            <path d="M6.678 6.003c-.356 0-.637.306-.637.687 0 .38.288.687.637.687.356 0 .637-.306.637-.687 0-.381-.287-.687-.637-.687zm-2.28 0c-.355 0-.636.306-.636.687 0 .38.287.687.637.687.356 0 .637-.306.637-.687.006-.381-.281-.687-.637-.687z"/>
            <path d="M9.713.807H1.344c-.705 0-1.28.574-1.28 1.28v8.37c0 .705.575 1.28 1.28 1.28h7.083l-.331-1.143.8.737.755.693 1.35 1.168V2.087A1.292 1.292 0 0 0 9.712.807zm-2.41 8.088s-.225-.269-.413-.5c.819-.231 1.13-.737 1.13-.737-.255.169-.499.287-.717.369a4.375 4.375 0 0 1-2.523.262 4.755 4.755 0 0 1-.919-.269 3.66 3.66 0 0 1-.456-.212c-.018-.012-.037-.019-.056-.031-.012-.006-.019-.013-.025-.013a2.19 2.19 0 0 1-.175-.106s.3.494 1.093.73c-.187.238-.418.513-.418.513-1.38-.044-1.905-.943-1.905-.943 0-1.992.9-3.61.9-3.61.899-.668 1.748-.65 1.748-.65l.063.075c-1.125.319-1.637.812-1.637.812s.138-.075.369-.175a4.894 4.894 0 0 1 1.417-.393c.038-.006.07-.013.107-.013.38-.05.812-.062 1.261-.012.594.069 1.23.244 1.88.593 0 0-.493-.468-1.555-.787l.087-.1s.856-.018 1.75.65c0 0 .899 1.618.899 3.61 0-.006-.525.893-1.905.937z"/>
        </symbol>
        <symbol id="icon-youtube" viewBox="-21 -117 682.667 682">
            <path d="M626.813 64.035c-7.375-27.418-28.993-49.031-56.407-56.414C520.324-6.082 319.992-6.082 319.992-6.082s-200.324 0-250.406 13.184c-26.887 7.375-49.031 29.52-56.406 56.933C0 114.113 0 217.97 0 217.97s0 104.379 13.18 153.933c7.382 27.414 28.992 49.028 56.41 56.41C120.195 442.02 320 442.02 320 442.02s200.324 0 250.406-13.184c27.418-7.379 49.032-28.992 56.414-56.406 13.176-50.082 13.176-153.934 13.176-153.934s.527-104.383-13.183-154.46zM256.21 313.915V122.022l166.586 95.946zm0 0"/>
        </symbol>
        <symbol id="icon-download" viewBox="0 0 21 14">
            <path d="M20.2 8.39c0 1.885-1.558 3.375-3.417 3.375h-1.658c-.302 0-.503-.199-.503-.497s.201-.496.503-.496h1.658a2.398 2.398 0 0 0 2.412-2.383c0-1.34-1.105-2.383-2.412-2.383h-.452l-.1-.446C15.827 2.88 13.516.993 10.802.993A5.45 5.45 0 0 0 5.88 4.02l-.2.347-.403-.099c-.301-.1-.603-.1-.904-.1-1.86 0-3.367 1.49-3.367 3.327 0 1.836 1.507 3.326 3.367 3.326h.753c.302 0 .503.198.503.496s-.201.496-.503.496h-.753C1.96 11.814 0 9.878 0 7.496c0-2.383 1.96-4.319 4.372-4.319.25 0 .502 0 .753.05A6.475 6.475 0 0 1 10.753 0c3.065 0 5.678 2.085 6.332 5.014A3.377 3.377 0 0 1 20.2 8.389zm-7.186 2.034a.49.49 0 0 0-.703 0l-1.709 1.688V7.645c0-.298-.2-.497-.502-.497-.301 0-.502.199-.502.497v4.467l-1.709-1.688a.49.49 0 0 0-.703 0 .476.476 0 0 0 0 .695l2.562 2.532c.05.05.1.1.151.1.05.049.15.049.201.049.05 0 .15 0 .201-.05.05-.05.1-.05.15-.099l2.563-2.532a.476.476 0 0 0 0-.694z"
                  fill="#E9721C"/>
        </symbol>
        <symbol id="icon-dayMode" fill="none" viewBox="0 0 48 55">
            <path d="M21.205.043c1.447-.34 2.455 1.406 1.436 2.488-7.347 7.808-8.807 19.61-3.364 29.038 5.444 9.429 16.394 14.065 26.83 11.606 1.447-.341 2.455 1.405 1.436 2.488a27.495 27.495 0 0 1-6.288 4.972C28.1 58.229 11.283 53.722 3.689 40.569-3.905 27.416.602 10.597 13.755 3.003a27.5 27.5 0 0 1 7.45-2.96z"
                  fill="#5F646C"/>
        </symbol>
        <symbol id="icon-darkMode" fill="none" viewBox="0 0 68 68">
            <path d="M34 48c7.732 0 14-6.268 14-14s-6.268-14-14-14-14 6.268-14 14 6.268 14 14 14z" stroke="#fff"
                  stroke-width="4"/>
            <path d="M34 12V2M34 66V56M56 34h10M2 34h10M49.556 18.444l7.071-7.071M11.372 56.627l7.071-7.07M49.556 49.556l7.071 7.071M11.372 11.373l7.071 7.07"
                  stroke="#fff" stroke-width="4" stroke-linecap="round"/>
        </symbol>
        <symbol id="icon-export" fill="none" viewBox="0 0 12 12">
            <path d="M9.5 3a.5.5 0 0 0-.5-.5H4.5a.5.5 0 0 0 0 1h4v4a.5.5 0 0 0 1 0V3zM3.354 9.354l6-6-.708-.708-6 6 .708.708z"
                  fill="#5F646C"/>
        </symbol>
        <symbol id="icon-warning" viewBox="0 0 91 80">
            <path d="M45.004 0c-2.847 0-5.424 1.469-6.843 3.938L1.067 68.156a7.8 7.8 0 0 0 0 7.875C2.49 78.491 5.069 80.003 7.91 80h74.187c2.842 0 5.42-1.508 6.844-3.969a7.8 7.8 0 0 0 0-7.875L51.848 3.937C50.428 1.47 47.852 0 45.004 0zm0 6c.578 0 1.37.438 1.657.938l37.093 64.218c.288.498.288 1.377 0 1.875s-1.079.97-1.656.969H7.911c-.578 0-1.369-.471-1.657-.969-.288-.498-.287-1.377 0-1.875L43.348 6.937C43.635 6.439 44.426 6 45.004 6zm-.03 12.938a3.006 3.006 0 0 0-.313.03A3 3 0 0 0 42.004 22v27a3 3 0 1 0 6 0V22a3.001 3.001 0 0 0-3.03-3.063zM45.003 55c-4.382 0-8 3.617-8 8s3.618 8 8 8c4.383 0 8-3.617 8-8s-3.617-8-8-8zm0 6c1.14 0 2 .86 2 2 0 1.14-.86 2-2 2-1.14 0-2-.86-2-2 0-1.14.86-2 2-2z"/>
        </symbol>
        <symbol id="icon-hide-password" fill="none" viewBox="0 0 32 22">
            <path fill-rule="evenodd" clip-rule="evenodd"
                  d="M26.621 4.914C28.727 6.435 30.577 8.464 32 11c-4.608 8.213-13.693 11.104-21.454 8.674l3.24-2.974c.692.226 1.437.35 2.214.35 3.639 0 6.588-2.709 6.588-6.05 0-.713-.134-1.398-.381-2.033l4.414-4.053zm-5.167-2.589L18.214 5.3A7.106 7.106 0 0 0 16 4.95c-3.639 0-6.588 2.709-6.588 6.05 0 .713.134 1.398.381 2.033l-4.414 4.053C3.273 15.565 1.423 13.536 0 11 4.607 2.787 13.693-.104 21.454 2.325zM4.02 20.778L26.648 0l1.331 1.222L5.352 22 4.02 20.778z"
                  fill="#C4C4C4"/>
            <ellipse cx="16" cy="11" rx="3.2" ry="3.143" fill="#C4C4C4"/>
        </symbol>
        <symbol id="icon-show-password" fill="none" viewBox="0 0 32 22">
            <path fill-rule="evenodd" clip-rule="evenodd"
                  d="M32 11C24.889-3.667 7.111-3.667 0 11c7.111 14.667 24.889 14.667 32 0zm-16 7c3.639 0 6.588-3.134 6.588-7S19.638 4 16 4c-3.639 0-6.588 3.134-6.588 7s2.95 7 6.588 7zm0-3c-2.08 0-3.765-1.79-3.765-4S13.921 7 16 7c2.08 0 3.765 1.79 3.765 4S18.079 15 16 15z"
                  fill="#C4C4C4"/>
        </symbol>
        <symbol id="icon-right-arrow" viewBox="0 0 17 8">
            <path d="M16.354 4.501a.5.5 0 0 0 0-.707L13.172.612a.5.5 0 1 0-.708.707l2.829 2.828-2.829 2.829a.5.5 0 1 0 .708.707l3.182-3.182zM0 4.647h16v-1H0v1z" />
        </symbol>
        <symbol id="icon-close" viewBox="0 0 32 32">
            <path d="M18.434 16L31.42 2.956c.695-.695.695-1.797 0-2.434-.696-.696-1.797-.696-2.435 0L16 13.565 2.956.522C2.261-.174 1.16-.174.522.522c-.696.695-.696 1.797 0 2.434L13.507 16 .522 29.044c-.696.695-.696 1.797 0 2.434.347.348.811.522 1.217.522s.87-.174 1.218-.522L16 18.435l13.043 13.043c.348.348.812.522 1.218.522.406 0 .87-.174 1.217-.522.696-.695.696-1.797 0-2.434L18.434 16z"/>
        </symbol>
        <symbol id="icon-success-small" fill="none" viewBox="0 0 16 12">
            <path d="M5.304 11.578L.29 6.524a1 1 0 0 1 0-1.41l.204-.204a1 1 0 0 1 1.418 0l3.393 3.409L13.267.296a1 1 0 0 1 1.422.002l.208.21a1 1 0 0 1-.003 1.407l-9.59 9.663z" fill="#4FBE89"/>
        </symbol>
        <symbol id="icon-edit" viewBox="0 0 560 560">
            <path d="M553.535 73.233l-66.77-66.77c-8.617-8.617-21.539-8.617-30.152 0l-200.3 200.3c-2.152 2.152-2.152 4.309-4.309 6.461v2.152l-34.46 101.23c-2.153 8.617-.001 17.23 4.308 21.539 4.309 4.309 8.617 6.461 15.078 6.461 2.152 0 4.309 0 6.461-2.152l101.23-34.461h2.152c2.153 0 4.309-2.153 6.461-4.309l200.31-200.31c8.61-8.61 8.61-21.53-.004-30.148l-.005.007zm-45.23 15.078l-10.77 10.77-36.617-36.617 10.77-10.77 36.617 36.617zm-170.16 170.15l-36.613-36.613 129.23-129.23 36.617 36.617-129.234 129.226zm-66.77 30.156l8.617-25.848 17.23 17.23-25.847 8.618z"/>
            <path d="M452.305 301.543c-12.922 0-21.539 8.617-21.539 21.539v150.77c0 23.691-19.383 43.078-43.078 43.078l-301.54-.004c-23.69 0-43.078-19.383-43.078-43.078l.004-301.54c0-23.691 19.383-43.078 43.078-43.078h150.77c12.922 0 21.539-8.617 21.539-21.539s-8.617-21.539-21.539-21.539H86.152C38.769 86.152 0 124.922 0 172.308v301.54C0 521.231 38.77 560 86.152 560h301.54c47.383 0 86.152-38.77 86.152-86.152v-150.77c.004-12.926-8.613-21.539-21.535-21.539l-.004.004z" />
        </symbol>
        <symbol viewBox="0 0 40 40" id="icon-ledger">
            <path d="M33.5106 0H15.23V24.6691H39.8991V6.38851C39.8991 2.84883 37.0503 0 33.5106 0ZM9.53231 0H6.38851C2.84883 0 0 2.84883 0 6.38851V9.53231H9.53231V0ZM0 15.23H9.53231V24.7623H0V15.23ZM30.4677 39.8991H33.6115C37.1512 39.8991 40 37.0503 40 33.5106V30.4677H30.4677V39.8991ZM15.23 30.4677H24.7623V40H15.23V30.4677ZM0 30.4677V33.6115C0 37.1512 2.84883 40 6.38851 40H9.53231V30.4677H0Z"></path>
        </symbol>
    </defs>
</svg>