<svg width="26" height="26" viewBox="0 0 26 26" fill="none" xmlns="http://www.w3.org/2000/svg">
<circle cx="13" cy="13" r="13" fill="#D3CCCC"/>
<path d="M7.09 10.02V17H5.69V10.02H7.09ZM12.4332 13.42C12.8265 13.4933 13.1499 13.69 13.4032 14.01C13.6565 14.33 13.7832 14.6967 13.7832 15.11C13.7832 15.4833 13.6899 15.8133 13.5032 16.1C13.3232 16.38 13.0599 16.6 12.7132 16.76C12.3665 16.92 11.9565 17 11.4832 17H8.4732V10.02H11.3532C11.8265 10.02 12.2332 10.0967 12.5732 10.25C12.9199 10.4033 13.1799 10.6167 13.3532 10.89C13.5332 11.1633 13.6232 11.4733 13.6232 11.82C13.6232 12.2267 13.5132 12.5667 13.2932 12.84C13.0799 13.1133 12.7932 13.3067 12.4332 13.42ZM9.8732 12.9H11.1532C11.4865 12.9 11.7432 12.8267 11.9232 12.68C12.1032 12.5267 12.1932 12.31 12.1932 12.03C12.1932 11.75 12.1032 11.5333 11.9232 11.38C11.7432 11.2267 11.4865 11.15 11.1532 11.15H9.8732V12.9ZM11.2832 15.86C11.6232 15.86 11.8865 15.78 12.0732 15.62C12.2665 15.46 12.3632 15.2333 12.3632 14.94C12.3632 14.64 12.2632 14.4067 12.0632 14.24C11.8632 14.0667 11.5932 13.98 11.2532 13.98H9.8732V15.86H11.2832ZM14.559 13.5C14.559 12.8133 14.7123 12.2 15.019 11.66C15.3323 11.1133 15.7557 10.69 16.289 10.39C16.829 10.0833 17.4323 9.93 18.099 9.93C18.879 9.93 19.5623 10.13 20.149 10.53C20.7357 10.93 21.1457 11.4833 21.379 12.19H19.769C19.609 11.8567 19.3823 11.6067 19.089 11.44C18.8023 11.2733 18.469 11.19 18.089 11.19C17.6823 11.19 17.319 11.2867 16.999 11.48C16.6857 11.6667 16.439 11.9333 16.259 12.28C16.0857 12.6267 15.999 13.0333 15.999 13.5C15.999 13.96 16.0857 14.3667 16.259 14.72C16.439 15.0667 16.6857 15.3367 16.999 15.53C17.319 15.7167 17.6823 15.81 18.089 15.81C18.469 15.81 18.8023 15.7267 19.089 15.56C19.3823 15.3867 19.609 15.1333 19.769 14.8H21.379C21.1457 15.5133 20.7357 16.07 20.149 16.47C19.569 16.8633 18.8857 17.06 18.099 17.06C17.4323 17.06 16.829 16.91 16.289 16.61C15.7557 16.3033 15.3323 15.88 15.019 15.34C14.7123 14.8 14.559 14.1867 14.559 13.5Z" fill="black"/>
</svg>
